<svg xmlns="http://www.w3.org/2000/svg" viewBox="0 0 24 24">
    <path d="m13.54449,11.99998l6.87419,-7.58848c0.42671,-0.4711 0.42671,-1.23491 0,-1.70597c-0.42671,-0.4711 -1.11854,-0.4711 -1.54522,0l0,0l-6.87348,7.58927l-6.87344,-7.58927c-0.42671,-0.4711 -1.11854,-0.4711 -1.54522,0s-0.42671,1.23491 0,1.70597l6.87416,7.58848l-6.87416,7.58852c-0.42671,0.4711 -0.42671,1.23491 0,1.70597s1.11854,0.4711 1.54522,0l6.87344,-7.58931l6.87344,7.58931c0.42671,0.4711 1.11854,0.4711 1.54522,0c0.42671,-0.4711 0.42671,-1.23491 0,-1.70597l-6.87416,-7.58852z" />
</svg>