<svg xmlns="http://www.w3.org/2000/svg" viewBox="0 0 24 24">
    <path d="m18 9.064a3.049 3.049 0 0 0 -.9-2.164 3.139 3.139 0 0 0 -4.334 0l-11.866 11.869a3.064 3.064 0 0 0 4.33 4.331l11.87-11.869a3.047 3.047 0 0 0 .9-2.167zm-14.184 12.624a1.087 1.087 0 0 1 -1.5 0 1.062 1.062 0 0 1 0-1.5l7.769-7.77 1.505 1.505zm11.872-11.872-2.688 2.689-1.5-1.505 2.689-2.688a1.063 1.063 0 1 1 1.5 1.5zm-10.825-6.961 1.55-.442.442-1.55a1.191 1.191 0 0 1 2.29 0l.442 1.55 1.55.442a1.191 1.191 0 0 1 0 2.29l-1.55.442-.442 1.55a1.191 1.191 0 0 1 -2.29 0l-.442-1.55-1.55-.442a1.191 1.191 0 0 1 0-2.29zm18.274 14.29-1.55.442-.442 1.55a1.191 1.191 0 0 1 -2.29 0l-.442-1.55-1.55-.442a1.191 1.191 0 0 1 0-2.29l1.55-.442.442-1.55a1.191 1.191 0 0 1 2.29 0l.442 1.55 1.55.442a1.191 1.191 0 0 1 0 2.29zm-5.382-14.645 1.356-.387.389-1.358a1.042 1.042 0 0 1 2 0l.387 1.356 1.356.387a1.042 1.042 0 0 1 0 2l-1.356.387-.387 1.359a1.042 1.042 0 0 1 -2 0l-.387-1.355-1.358-.389a1.042 1.042 0 0 1 0-2z" />
</svg>