<svg xmlns="http://www.w3.org/2000/svg" viewBox="0 0 24 24">
    <path d="M16.707,13.174c.391,.391,.391,1.023,0,1.414l-2.535,2.535c-.585,.585-1.412,.876-2.172,.876s-1.515-.32-2.071-.876l-2.636-2.636c-.391-.39-.391-1.023,0-1.414s1.023-.391,1.414,0l2.293,2.293V7c0-.552,.448-1,1-1s1,.448,1,1V15.467l2.293-2.293c.391-.391,1.023-.391,1.414,0Zm7.293-.834v6.66c0,2.757-2.243,5-5,5h-5.917C6.082,24,.47,19.208,.03,12.854-.211,9.378,1.057,5.976,3.509,3.521S9.367-.206,12.836,.029c6.26,.425,11.164,5.833,11.164,12.311Zm-2,0c0-5.431-4.085-9.962-9.299-10.316-.229-.016-.458-.023-.686-.023-2.656,0-5.209,1.048-7.091,2.933-2.044,2.046-3.101,4.883-2.899,7.782,.373,5.38,5.023,9.285,11.058,9.285h5.917c1.654,0,3-1.346,3-3v-6.66Z"/>
</svg>
