<svg viewBox="0 0 24 24" xmlns="http://www.w3.org/2000/svg">
    <path d="m12,14.879c-1.62546,0 -2.94318,1.2922 -2.94318,2.88619l0,5.77238l5.88636,0l0,-5.77238c0,-1.59399 -1.31772,-2.88619 -2.94318,-2.88619z"/>
    <path d="m16.90532,17.76519l0,5.77238l3.92423,0c1.62546,0 2.94318,-1.2922 2.94318,-2.88619l0,-8.77497c0.00023,-0.49981 -0.19784,-0.98009 -0.55235,-1.33919l-8.33702,-8.83851c-1.47104,-1.5608 -3.9538,-1.65663 -5.54541,-0.21407c-0.0756,0.06855 -0.14845,0.13994 -0.2183,0.21407l-8.32235,8.83562c-0.36523,0.36059 -0.57015,0.84827 -0.57001,1.35651l0,8.76054c0,1.59399 1.31772,2.88619 2.94318,2.88619l3.92423,0l0,-5.77238c0.01835,-2.62337 2.17823,-4.76564 4.78603,-4.82734c2.69503,-0.06377 5.00405,2.11499 5.02461,4.82734z"/>
    <path d="m12,14.879c-1.62546,0 -2.94318,1.2922 -2.94318,2.88619l0,5.77238l5.88636,0l0,-5.77238c0,-1.59399 -1.31772,-2.88619 -2.94318,-2.88619z"/>
</svg>