<svg xmlns="http://www.w3.org/2000/svg" viewBox="0 0 24 24">
    <path d="m21.3627,8.76827c-0.90304,-1.23057 -2.26483,-1.94447 -3.70282,-1.94115l-1.76605,0l0.078,-0.50317c0.31795,-2.0498 -0.93534,-3.9949 -2.79932,-4.34454c-0.20509,-0.03847 -0.41295,-0.05632 -0.62098,-0.05327c-1.30703,-0.00749 -2.50608,0.79636 -3.0988,2.07742l-1.31025,2.82356l-1.80417,0c-2.63101,0.00318 -4.7632,2.34788 -4.76606,5.2412l0,4.76471c0.00285,2.89333 2.13505,5.23802 4.76606,5.24116l10.40564,0c2.24897,-0.00897 4.18916,-1.73809 4.66294,-4.15577l0.91597,-4.76471c0.30054,-1.54627 -0.05256,-3.15903 -0.96017,-4.38543zm-17.19079,8.06472l0,-4.76467c0,-1.31571 0.96991,-2.38236 2.1664,-2.38236l1.29985,0l0,9.52938l-1.29985,0c-1.19645,0 -2.1664,-1.0666 -2.1664,-2.38236zm15.60757,-4.27105l-0.91683,4.76471c-0.215,1.09879 -1.09668,1.88475 -2.11874,1.88874l-6.50609,0l0,-10.61486l1.53034,-3.29812c0.1622,-0.33386 0.48463,-0.53523 0.82843,-0.51743c0.4556,0.00031 0.82472,0.40677 0.82443,0.90778c-0.00004,0.05058 -0.00391,0.10106 -0.01158,0.15092l-0.59533,3.84227l4.84577,0c1.19645,-0.00013 2.16648,1.06637 2.16661,2.38209c0.00004,0.16599 -0.01574,0.33148 -0.04701,0.49389l0,0z" />
</svg>