<svg xmlns="http://www.w3.org/2000/svg" viewBox="0 0 24 24">
    <text transform="matrix(1.608 0 0 1.68994 -9.79861 -11.2995)" font-style="normal" font-weight="normal" xml:space="preserve" text-anchor="start" font-family="STXingkai" font-size="8" stroke-width="0" y="19.85089" x="13.44437">词</text>
    <path d="m5,1.32468a1,1 0 0 0 0,2l14,0a1,1 0 0 0 0,-2l-14,0z"/>
    <path d="m11.12662,11.32468l-6.65152,0a0.47511,1 0 0 0 0,2l6.65152,0a0.47511,1 0 0 0 0,-2z"/>
    <path d="m23,6.32468l-22,0a1,1 0 0 0 0,2l22,0a1,1 0 0 0 0,-2z"/>
</svg>