<svg xmlns="http://www.w3.org/2000/svg" viewBox="0 0 24 24" >
    <path id="Layer" class="shp0" d="M1.5 6L22.5 6C22.9 6 23.28 5.84 23.56 5.56C23.84 5.28 24 4.9 24 4.5C24 4.1 23.84 3.72 23.56 3.44C23.28 3.16 22.9 3 22.5 3L1.5 3C1.1 3 0.72 3.16 0.44 3.44C0.16 3.72 0 4.1 0 4.5C0 4.9 0.16 5.28 0.44 5.56C0.72 5.84 1.1 6 1.5 6Z"/>
    <path id="Layer" class="shp0" d="M1.5 11L14.5 11C14.9 11 15.28 10.84 15.56 10.56C15.84 10.28 16 9.9 16 9.5C16 9.1 15.84 8.72 15.56 8.44C15.28 8.16 14.9 8 14.5 8L1.5 8C1.1 8 0.72 8.16 0.44 8.44C0.16 8.72 0 9.1 0 9.5C0 9.9 0.16 10.28 0.44 10.56C0.72 10.84 1.1 11 1.5 11Z"/>
    <path id="Layer" class="shp0" d="M1.5 21L22.5 21C22.9 21 23.28 20.84 23.56 20.56C23.84 20.28 24 19.9 24 19.5C24 19.1 23.84 18.72 23.56 18.44C23.28 18.16 22.9 18 22.5 18L1.5 18C1.1 18 0.72 18.16 0.44 18.44C0.16 18.72 0 19.1 0 19.5C0 19.9 0.16 20.28 0.44 20.56C0.72 20.84 1.1 21 1.5 21Z"/>
    <path id="Layer" class="shp0" d="M1.5 16L14.5 16C14.9 16 15.28 15.84 15.56 15.56C15.84 15.28 16 14.9 16 14.5C16 14.1 15.84 13.72 15.56 13.44C15.28 13.16 14.9 13 14.5 13L1.5 13C1.1 13 0.72 13.16 0.44 13.44C0.16 13.72 0 14.1 0 14.5C0 14.9 0.16 15.28 0.44 15.56C0.72 15.84 1.1 16 1.5 16Z"/>
    <path id="Layer" class="shp0" d="M22.29 15.74L19.32 12.77C19.22 12.67 19.14 12.55 19.08 12.42C19.03 12.28 19 12.14 19 12C19 11.86 19.03 11.72 19.08 11.58C19.14 11.45 19.22 11.33 19.32 11.23L22.29 8.26C22.43 8.12 22.61 8.02 22.81 7.98C23 7.94 23.2 7.96 23.38 8.04C23.57 8.11 23.72 8.24 23.83 8.41C23.94 8.57 24 8.77 24 8.96L24 15.04C24 15.23 23.94 15.43 23.83 15.59C23.72 15.76 23.57 15.89 23.38 15.96C23.2 16.04 23 16.06 22.81 16.02C22.61 15.98 22.43 15.88 22.29 15.74L22.29 15.74Z"/>
</svg>