<svg xmlns="http://www.w3.org/2000/svg" viewBox="0 0 24 24">
    <path d="m4.36611,1.02459l2.8627,0c2.10802,0 3.81692,1.63795 3.81692,3.65846l0,2.74385c0,2.0205 -1.7089,3.65846 -3.81692,3.65846l-2.8627,0c-2.10802,0.00004 -3.81692,-1.63791 -3.81692,-3.65846l0,-2.74385c0,-2.0205 1.7089,-3.65846 3.81692,-3.65846z" />
    <path d="m4.36611,12.9146l2.8627,0c2.10802,0 3.81692,1.63795 3.81692,3.65846l0,2.74385c0,2.0205 -1.7089,3.65846 -3.81692,3.65846l-2.8627,0c-2.10802,0.00004 -3.81692,-1.63791 -3.81692,-3.65841l0,-2.74385c0,-2.02055 1.7089,-3.6585 3.81692,-3.6585z" />
    <path d="m16.77119,12.9146l2.8627,0c2.10802,0 3.81692,1.63795 3.81692,3.65846l0,2.74385c0,2.02055 -1.7089,3.6585 -3.81692,3.6585l-2.8627,0c-2.10802,0 -3.81692,-1.63795 -3.81692,-3.65846l0,-2.74385c-0.00004,-2.02055 1.70886,-3.6585 3.81692,-3.6585z" />
    <path d="m13.90848,7.4269l2.8627,0l0,2.74385c0,0.50513 0.42721,0.9146 0.95422,0.9146c0.52701,0 0.95422,-0.40948 0.95422,-0.9146l0,-2.74385l2.8627,0c0.52701,0 0.95422,-0.40948 0.95422,-0.9146s-0.42721,-0.9146 -0.95422,-0.9146l-2.8627,0l0,-2.74385c0,-0.50513 -0.42721,-0.9146 -0.95422,-0.9146c-0.52701,0 -0.95422,0.40948 -0.95422,0.9146l0,2.74385l-2.8627,0c-0.52701,0 -0.95422,0.40948 -0.95422,0.9146s0.42721,0.9146 0.95422,0.9146z" />
</svg>