<svg xmlns="http://www.w3.org/2000/svg" viewBox="0 0 24 24">
    <path d="m7.1796,0.51724l-2.89224,0a3.85632,3.82759 0 0 0 -3.85632,3.82759l0,2.87069a3.85632,3.82759 0 0 0 3.85632,3.82759l2.89224,0a3.85632,3.82759 0 0 0 3.85632,-3.82759l0,-2.87069a3.85632,3.82759 0 0 0 -3.85632,-3.82759zm1.92816,6.69828a1.92816,1.91379 0 0 1 -1.92816,1.91379l-2.89224,0a1.92816,1.91379 0 0 1 -1.92816,-1.91379l0,-2.87069a1.92816,1.91379 0 0 1 1.92816,-1.91379l2.89224,0a1.92816,1.91379 0 0 1 1.92816,1.91379l0,2.87069z" />
    <path d="m7.1796,12.9569l-2.89224,0a3.85632,3.82759 0 0 0 -3.85632,3.82759l0,2.87069a3.85632,3.82759 0 0 0 3.85632,3.82759l2.89224,0a3.85632,3.82759 0 0 0 3.85632,-3.82759l0,-2.87069a3.85632,3.82759 0 0 0 -3.85632,-3.82759zm1.92816,6.69828a1.92816,1.91379 0 0 1 -1.92816,1.91379l-2.89224,0a1.92816,1.91379 0 0 1 -1.92816,-1.91379l0,-2.87069a1.92816,1.91379 0 0 1 1.92816,-1.91379l2.89224,0a1.92816,1.91379 0 0 1 1.92816,1.91379l0,2.87069z" />
    <path d="m19.71264,12.9569l-2.89224,0a3.85632,3.82759 0 0 0 -3.85632,3.82759l0,2.87069a3.85632,3.82759 0 0 0 3.85632,3.82759l2.89224,0a3.85632,3.82759 0 0 0 3.85632,-3.82759l0,-2.87069a3.85632,3.82759 0 0 0 -3.85632,-3.82759zm1.92816,6.69828a1.92816,1.91379 0 0 1 -1.92816,1.91379l-2.89224,0a1.92816,1.91379 0 0 1 -1.92816,-1.91379l0,-2.87069a1.92816,1.91379 0 0 1 1.92816,-1.91379l2.89224,0a1.92816,1.91379 0 0 1 1.92816,1.91379l0,2.87069z" />
    <path d="m13.92816,7.21552l2.89224,0l0,2.87069a0.96408,0.9569 0 0 0 1.92816,0l0,-2.87069l2.89224,0a0.96408,0.9569 0 0 0 0,-1.91379l-2.89224,0l0,-2.87069a0.96408,0.9569 0 0 0 -1.92816,0l0,2.87069l-2.89224,0a0.96408,0.9569 0 0 0 0,1.91379z" />
</svg>