<svg xmlns="http://www.w3.org/2000/svg" viewBox="0 0 24 24">
    <path d="m4 6a2.982 2.982 0 0 1 -2.122-.879l-1.544-1.374a1 1 0 0 1 1.332-1.494l1.585 1.414a1 1 0 0 0 1.456.04l3.604-3.431a1 1 0 0 1 1.378 1.448l-3.589 3.414a2.964 2.964 0 0 1 -2.1.862zm20-2a1 1 0 0 0 -1-1h-10a1 1 0 0 0 0 2h10a1 1 0 0 0 1-1zm-17.9 9.138 3.589-3.414a1 1 0 1 0 -1.378-1.448l-3.6 3.431a1.023 1.023 0 0 1 -1.414 0l-1.59-1.585a1 1 0 0 0 -1.414 1.414l1.585 1.585a3 3 0 0 0 4.226.017zm17.9-1.138a1 1 0 0 0 -1-1h-10a1 1 0 0 0 0 2h10a1 1 0 0 0 1-1zm-17.9 9.138 3.585-3.414a1 1 0 1 0 -1.378-1.448l-3.6 3.431a1 1 0 0 1 -1.456-.04l-1.585-1.414a1 1 0 0 0 -1.332 1.494l1.544 1.374a3 3 0 0 0 4.226.017zm17.9-1.138a1 1 0 0 0 -1-1h-10a1 1 0 0 0 0 2h10a1 1 0 0 0 1-1z" />
</svg>