<svg xmlns="http://www.w3.org/2000/svg" viewBox="0 0 24 24">
    <path d="m23.56548,1.80526l-18.29898,18.34856c0.39561,0.19338 0.82951,0.29501 1.26958,0.29729l3.13396,0c0.26218,-0.0007 0.5137,0.10386 0.69854,0.29037l1.69839,1.70248c0.92103,0.93014 2.17375,1.45369 3.48075,1.45471c0.53964,-0.00051 1.07557,-0.08923 1.58673,-0.26259c1.76221,-0.57948 3.04397,-2.11167 3.30689,-3.95294l3.33848,-15.90486c0.15941,-0.66272 0.0836,-1.36037 -0.21434,-1.97301z" />
    <path d="m20.22598,0.17808l-15.81906,3.34253c-2.70292,0.37245 -4.59305,2.87207 -4.22171,5.58305c0.14667,1.07061 0.63829,2.06382 1.39995,2.82818l1.69742,1.70248c0.18553,0.18604 0.28969,0.43845 0.2895,0.7016l0,3.1433c0.00227,0.44138 0.1036,0.87663 0.2964,1.27336l18.29597,-18.35349c-0.60124,-0.29636 -1.2863,-0.37444 -1.93848,-0.22101z" />
</svg>