<svg xmlns="http://www.w3.org/2000/svg" viewBox="0 0 24 24">
    <path d="M11,15v-3.586l-.293,.293c-.391,.391-1.023,.391-1.414,0s-.391-1.023,0-1.414l2-2c.286-.287,.714-.374,1.09-.217,.374,.154,.617,.52,.617,.924v6c0,.553-.448,1-1,1s-1-.447-1-1Zm12-4c-.553,0-1,.447-1,1,0,3.309-2.691,6-6,6H3l2.293-2.293c.391-.391,.391-1.023,0-1.414s-1.023-.391-1.414,0l-3.293,3.293c-.78,.779-.78,2.049,0,2.828l3.293,3.293c.195,.195,.451,.293,.707,.293s.512-.098,.707-.293c.391-.391,.391-1.023,0-1.414l-2.293-2.293h13c4.411,0,8-3.589,8-8,0-.553-.447-1-1-1ZM1,13c.552,0,1-.447,1-1,0-3.309,2.691-6,6-6h13l-2.293,2.293c-.391,.391-.391,1.023,0,1.414,.195,.195,.451,.293,.707,.293s.512-.098,.707-.293l3.293-3.293c.78-.779,.78-2.049,0-2.828L20.121,.293c-.391-.391-1.023-.391-1.414,0s-.391,1.023,0,1.414l2.293,2.293H8C3.589,4,0,7.589,0,12c0,.553,.448,1,1,1Z"/>
</svg>