<svg xmlns="http://www.w3.org/2000/svg" viewBox="0 0 24 24">
    <path d="M.871 5h10.758c.488 0 .871-.439.871-1s-.383-1-.871-1H.871C.383 3 0 3.439 0 4s.383 1 .871 1zM.871 10.25h10.758c.488 0 .871-.439.871-1s-.383-1-.871-1H.871c-.488 0-.871.439-.871 1s.383 1 .871 1zM23.595 3.129l-.002-.001c-.254-.156-.574-.17-.833-.036l-7.449 3.756c-.291.148-.472.442-.472.77v8.259c-.5-.234-1.055-.356-1.626-.356-1.841 0-3.339 1.229-3.339 2.74s1.498 2.74 3.339 2.74 3.338-1.229 3.338-2.74V8.15l5.736-2.893v8.116c-.5-.233-1.056-.355-1.627-.355-1.841 0-3.338 1.229-3.338 2.739s1.497 2.74 3.338 2.74 3.339-1.229 3.339-2.74V3.862c0-.3-.151-.574-.405-.733zM8.129 13.5H.871c-.488 0-.871.439-.871 1s.383 1 .871 1h7.258c.488 0 .871-.439.871-1s-.383-1-.871-1z" />
</svg>