<svg xmlns="http://www.w3.org/2000/svg" viewBox="0 0 24 24">
    <path d="m21.97492,20.55917l-4.00785,-4.21116c2.99887,-4.20905 2.18117,-10.17449 -1.82636,-13.32416s-9.68737,-2.29085 -12.68624,1.9182s-2.18117,10.17449 1.82636,13.32416c3.21918,2.53008 7.64066,2.53008 10.85988,0l4.00955,4.21116c0.50387,0.52921 1.3208,0.52921 1.82462,0c0.50387,-0.52921 0.50387,-1.38721 0,-1.91637l0.00004,-0.00182zm-11.23074,-3.10576c-3.5617,0 -6.449,-3.03249 -6.449,-6.77329s2.8873,-6.77329 6.449,-6.77329s6.449,3.03249 6.449,6.77329c-0.00379,3.73911 -2.88887,6.76931 -6.449,6.77329z" />
</svg>