<svg xmlns="http://www.w3.org/2000/svg" viewBox="0 0 24 24" >
    <path d="m23.707 16.325a1 1 0 0 0 -1.414 0l-5.627 5.628-2.688-2.653a1 1 0 0 0 -1.435 1.4l2.744 2.7a1.876 1.876 0 0 0 1.345.6h.033a1.873 1.873 0 0 0 1.335-.553l5.707-5.708a1 1 0 0 0 0-1.414z"/>
    <path d="m11.09 21.959a10 10 0 1 1 10.91-9.959c0 .307-.015.611-.041.911a1 1 0 0 0 .907 1.089.989.989 0 0 0 1.085-.907c.032-.363.049-.726.049-1.093a12 12 0 1 0 -13.09 11.951h.091a1 1 0 0 0 .089-2z"/>
    <path d="m11 7v4.586l-2.707 2.707a1 1 0 1 0 1.414 1.414l3-3a1 1 0 0 0 .293-.707v-5a1 1 0 0 0 -2 0z"/>
</svg>