<svg xmlns="http://www.w3.org/2000/svg" viewBox="0 0 24 24">
    <path d="m9.5 24h-8a1.5 1.5 0 0 1 0-3h8a1.5 1.5 0 0 1 0 3z" />
    <path d="m7.5 19h-6a1.5 1.5 0 0 1 0-3h6a1.5 1.5 0 0 1 0 3z" />
    <path d="m5.5 14h-4a1.5 1.5 0 0 1 0-3h4a1.5 1.5 0 0 1 0 3z" />
    <path d="m14.5 23.722a1.5 1.5 0 0 1 -.354-2.958 9.022 9.022 0 1 0 -10.303-12.622 1.5 1.5 0 0 1 -2.711-1.284 12.023 12.023 0 1 1 13.723 16.821 1.513 1.513 0 0 1 -.355.043z" />
    <path d="m12.5 6a1.5 1.5 0 0 0 -1.5 1.5v4.293a2 2 0 0 0 .586 1.414l1.793 1.793a1.5 1.5 0 0 0 2.121-2.121l-1.5-1.5v-3.879a1.5 1.5 0 0 0 -1.5-1.5z" />
</svg>