<svg xmlns="http://www.w3.org/2000/svg" viewBox="0 0 24 24">
    <path d="m10.79669,8a4,4 0 1 0 4,4a4,4 0 0 0 -4,-4zm0,6a2,2 0 1 1 2,-2a2,2 0 0 1 -2,2z" />
    <path d="m20.09069,13.9l-0.444,-0.256a9.1,9.1 0 0 0 0,-3.29l0.444,-0.256a3,3 0 1 0 -3,-5.2l-0.445,0.257a8.977,8.977 0 0 0 -2.849,-1.642l0,-0.513a3,3 0 0 0 -6,0l0,0.513a8.977,8.977 0 0 0 -2.848,1.646l-0.447,-0.259a3,3 0 0 0 -3,5.2l0.444,0.256a9.1,9.1 0 0 0 0,3.29l-0.444,0.256a3,3 0 1 0 3,5.2l0.445,-0.257a8.977,8.977 0 0 0 2.85,1.642l0,0.513a3,3 0 0 0 6,0l0,-0.513a8.977,8.977 0 0 0 2.848,-1.646l0.447,0.258a3,3 0 0 0 3,-5.2l-0.001,0.001zm-2.548,-3.776a7.048,7.048 0 0 1 0,3.75a1,1 0 0 0 0.464,1.133l1.084,0.626a1,1 0 0 1 -1,1.733l-1.086,-0.628a1,1 0 0 0 -1.215,0.165a6.984,6.984 0 0 1 -3.243,1.875a1,1 0 0 0 -0.751,0.969l0,1.253a1,1 0 0 1 -2,0l0,-1.252a1,1 0 0 0 -0.751,-0.969a6.984,6.984 0 0 1 -3.242,-1.879a1,1 0 0 0 -1.215,-0.165l-1.084,0.627a1,1 0 1 1 -1,-1.732l1.084,-0.626a1,1 0 0 0 0.464,-1.133a7.048,7.048 0 0 1 0,-3.75a1,1 0 0 0 -0.465,-1.129l-1.084,-0.626a1,1 0 0 1 1,-1.733l1.086,0.628a1,1 0 0 0 1.214,-0.161a6.984,6.984 0 0 1 3.243,-1.875a1,1 0 0 0 0.751,-0.973l0,-1.252a1,1 0 0 1 2,0l0,1.252a1,1 0 0 0 0.751,0.969a6.984,6.984 0 0 1 3.243,1.879a1,1 0 0 0 1.215,0.165l1.084,-0.627a1,1 0 1 1 1,1.732l-1.084,0.626a1,1 0 0 0 -0.463,1.129l0,-0.001z" />
</svg>