<svg xmlns="http://www.w3.org/2000/svg" viewBox="0 0 24 24">
    <path d="m0.77466,17.96488c0.8934,1.42719 2.87467,1.91752 4.42524,1.09521c0.00106,-0.00056 0.00208,-0.00112 0.00314,-0.00168l0.48062,-0.25551c0.90727,0.71448 1.95013,1.26856 3.07608,1.63438l0,0.51004c0,1.64714 1.45073,2.98244 3.24027,2.98244s3.24027,-1.33529 3.24027,-2.98244l0,-0.51c1.12609,-0.36642 2.169,-0.92115 3.07608,-1.63638l0.4828,0.25649c1.55092,0.82357 3.53361,0.33399 4.42838,-1.09358c0.89477,-1.42752 0.36286,-3.25244 -1.18811,-4.07601l0,0l-0.47956,-0.25449c0.21588,-1.08118 0.21588,-2.18953 0,-3.27076l0.47956,-0.25449c1.55092,-0.82357 2.08288,-2.64845 1.18811,-4.07601c-0.89477,-1.42752 -2.87741,-1.91715 -4.42838,-1.09358l-0.48062,0.25551c-0.90819,-0.71359 -1.95175,-1.26665 -3.07825,-1.63135l0,-0.51c0,-1.64714 -1.45073,-2.98244 -3.24027,-2.98244s-3.24027,1.33529 -3.24027,2.98244l0,0.51c-1.12609,0.36642 -2.169,0.92115 -3.07608,1.63638l-0.4828,-0.25747c-1.55097,-0.82362 -3.53361,-0.33399 -4.42838,1.09353s-0.36286,3.25244 1.18811,4.07601l0,0l0.47956,0.25449c-0.21588,1.08118 -0.21588,2.18953 0,3.27076l-0.47956,0.25449c-1.54667,0.82576 -2.07686,2.6471 -1.18594,4.07401zm11.22534,-9.94145c2.38605,0 4.32034,1.78038 4.32034,3.97657s-1.93429,3.97657 -4.32034,3.97657s-4.32034,-1.78038 -4.32034,-3.97657s1.93429,-3.97657 4.32034,-3.97657z" />
</svg>