<svg xmlns="http://www.w3.org/2000/svg" viewBox="0 0 24 24">
    <path d="m7.64068,13.8499c-4.08428,0.35313 -7.19593,3.65426 -7.14171,7.57657l0,0.19891c0,0.75942 0.64361,1.37506 1.43754,1.37506s1.43754,-0.61564 1.43754,-1.37506l0,-0.25391c-0.04322,-2.40829 1.81481,-4.46198 4.31263,-4.76685c2.63668,-0.25009 4.98612,1.59172 5.24757,4.11379c0.01545,0.14911 0.02327,0.29882 0.0234,0.44866l0,0.45837c0,0.75942 0.64361,1.37506 1.43754,1.37506c0.79393,0 1.43754,-0.61564 1.43754,-1.37506l0,-0.45837c-0.00467,-4.05483 -3.44494,-7.33826 -7.68398,-7.33379c-0.16954,0.00017 -0.33899,0.00572 -0.50808,0.01663z" />
    <path d="m8.16584,11.99998c3.17571,0 5.75017,-2.46256 5.75017,-5.50023s-2.57446,-5.50023 -5.75017,-5.50023s-5.75017,2.46256 -5.75017,5.50023c0.00319,3.03647 2.57576,5.49723 5.75017,5.50023zm0,-8.25035c1.58786,0 2.87509,1.23128 2.87509,2.75012s-1.28723,2.75012 -2.87509,2.75012s-2.87509,-1.23128 -2.87509,-2.75012s1.28723,-2.75012 2.87509,-2.75012z" />
    <path d="m21.58291,8.21857c-1.11037,0.0529 -1.96719,0.95442 -1.91674,2.01674c0.05045,-1.06232 -0.80633,-1.96384 -1.91674,-2.01674c-1.11037,0.0529 -1.96719,0.95442 -1.91674,2.01674c0,1.58592 2.16206,3.44405 3.23928,4.27093c0.3473,0.26599 0.84105,0.26599 1.18835,0c1.07721,-0.82504 3.23928,-2.68502 3.23928,-4.27093c0.05045,-1.06232 -0.80633,-1.9638 -1.91669,-2.01674z" />
</svg>