<svg xmlns="http://www.w3.org/2000/svg" viewBox="0 0 24 24">
    <path d="m13.45603,0.80811a11.646,11.48441 0 0 0 -7.29832,4.57319l-1.22315,0a4.83849,4.77136 0 0 0 -4.83076,4.76374l0,3.81099a4.83849,4.77136 0 0 0 4.83076,4.76374l1.22315,0a11.65083,11.48918 0 0 0 7.29832,4.57319a0.88596,0.87367 0 0 0 0.17487,0.0162a0.96615,0.95275 0 0 0 0.96615,-0.95275l0,-20.60887a0.96615,0.95275 0 0 0 -1.14103,-0.93941zm-0.79225,20.32686a9.74172,9.60655 0 0 1 -5.18921,-3.88721a0.96615,0.95275 0 0 0 -0.80867,-0.4335l-1.73135,0a2.89846,2.85824 0 0 1 -2.89846,-2.85824l0,-3.81099a2.89846,2.85824 0 0 1 2.89846,-2.85824l1.73907,0a0.96615,0.95275 0 0 0 0.80867,-0.43159a9.73785,9.60274 0 0 1 5.18148,-3.88911l0,18.16889z" />
    <path d="m23.16751,14.44734l-2.34669,-2.44711l2.34626,-2.44711l-1.20619,-1.25869l-2.34669,2.44711l-2.34669,-2.44711l-1.20619,1.25869l2.34626,2.44711l-2.34669,2.44711l1.20704,1.25825l2.34626,-2.44711l2.34626,2.44711" />
</svg>