<svg xmlns="http://www.w3.org/2000/svg" viewBox="0 0 24 24">
    <path d="M20.8,4.293A1,1,0,0,0,19.39,5.707a8.911,8.911,0,0,1,0,12.586A1,1,0,1,0,20.8,19.707,10.911,10.911,0,0,0,20.8,4.293Z" />
    <path d="M18.093,7.293a1,1,0,1,0-1.414,1.414,4.664,4.664,0,0,1,0,6.586,1,1,0,1,0,1.414,1.414A6.665,6.665,0,0,0,18.093,7.293Z" />
    <path d="M13.819.207A12.055,12.055,0,0,0,6.268,5H5a5.006,5.006,0,0,0-5,5v4a5.006,5.006,0,0,0,5,5H6.269a12.051,12.051,0,0,0,7.55,4.793A1,1,0,0,0,15,22.81V1.19A1,1,0,0,0,13.819.207Z" />
</svg>